<svg id="svg" version="1.1" viewBox="0 0 298.42105263157896 300" width="298.42105263157896" height="300" xmlns="http://www.w3.org/2000/svg"><svg xmlns="http://www.w3.org/2000/svg"><defs><clipPath id="clip-1"><rect x="0" y="0" transform="scale(0.1465,0.14648)" width="2037" height="2048" fill="none"/></clipPath></defs><g clip-path="url(#clip-1)" fill="none" fill-rule="nonzero" stroke="none" stroke-width="1" stroke-linecap="butt" stroke-linejoin="miter" stroke-miterlimit="10" stroke-dasharray="" stroke-dashoffset="0" font-family="none" font-weight="none" font-size="none" text-anchor="none" style="mix-blend-mode: normal"><path d="M0,0h298.42105v300h-298.42105z" fill="#000000"/><path d="M144.07569,8.81301c78.2707,-2.36807 143.64791,59.14548 146.03587,137.4074c2.38942,78.2625 -59.11432,143.64727 -137.38356,146.05693c-78.29883,2.40967 -143.72093,-59.11523 -146.11061,-137.40527c-2.38968,-78.29121 59.1583,-143.69013 137.4583,-146.05906z" fill="#343434"/><path d="M145.0568,13.4503c75.71324,-1.82524 138.57358,58.06118 140.40923,133.7665c1.83418,75.70459 -58.05073,138.56543 -133.76354,140.41113c-75.72628,1.84424 -138.60816,-58.04736 -140.4436,-133.7666c-1.83546,-75.71807 58.0706,-138.5855 133.79791,-140.41103z" fill="#000000"/><path d="M201.31921,101.9269l31.26462,0.05112c-0.1509,3.72729 -0.04249,8.09194 -0.03956,11.86758l-0.00879,20.84678l-0.00293,64.37695l-22.57862,0.01465c-1.39908,-2.74512 -3.41639,-6.04834 -4.96782,-8.74365l-8.08242,-14.22949l-26.91063,-47.68462c-0.15236,5.44746 -0.06886,11.18701 -0.02491,16.64312l-16.94862,0.00659c-0.23294,-8.51353 -0.03809,-17.96719 -0.04835,-26.55234l-0.00879,-10.48506c-0.00147,-1.63477 -0.07618,-4.41182 0.063,-5.95107l7.08182,-0.06387l14.2076,-0.0854c1.70673,3.5792 5.3414,9.44634 7.38801,13.07783l16.63364,29.37832l11.07542,19.66084c1.6994,3.0293 4.43017,8.26172 6.37569,10.93799c-0.1509,-1.9248 -0.04249,-4.84277 -0.03516,-6.83789l-0.06007,-9.93896l-0.03663,-39.11265l-14.29403,0.01201z" fill="#14e1d0"/><path d="M64.09035,101.99795c6.9173,-0.15703 14.42398,0.0126 21.40164,-0.00718c1.26767,3.09976 3.02245,6.59297 4.49888,9.62139l6.25644,12.84653c6.85607,14.01064 13.79857,27.97881 20.82706,41.90361c-0.92867,1.78125 -1.65282,3.68262 -2.61957,5.46094c-4.55704,-0.07617 -9.2638,0.00586 -13.83212,0.03516c-1.57927,-3.7749 -4.05527,-8.58691 -5.85635,-12.34277c-4.50737,-9.33252 -9.06939,-18.63809 -13.68576,-27.91655c-0.04249,2.02544 -0.01509,4.14873 -0.01992,6.18237c-0.11075,14.52275 -0.16789,29.77178 -0.02666,44.29424c4.73826,-0.104 9.61159,-0.03662 14.38252,-0.09814l0.00996,17.1123l-31.25935,-0.00732c0.09303,-4.89111 -0.00469,-10.07373 0.00425,-15.00293l0.00015,-35.93115l-0.00703,-28.48989c0.00103,-5.83022 0.08204,-11.84941 -0.07413,-17.6606z" fill="#14e1d0"/><path d="M128.87351,101.93057c6.50432,0.32139 14.30853,0.12832 20.8864,0.08174l0.11281,42.77578c0.0044,7.45459 -0.17141,16.5 0.21829,23.87402c-1.35952,0.60645 -2.33814,1.2627 -3.00912,2.67627c-0.55817,1.17188 -0.62116,2.521 -0.17434,3.73975c0.62409,1.70215 1.67596,2.32617 3.1732,3.03516c0.07618,6.97559 0.17141,14.55908 0.07472,21.48486c-1.72577,-1.88232 -2.41579,-4.65381 -3.56728,-6.97852c-3.70939,-7.48535 -9.00566,-15.05127 -15.82349,-19.98779c2.67744,-6.10693 2.2271,-8.36279 2.31881,-14.62793c0.08687,-5.24854 0.08893,-10.49854 0.00601,-15.74751c-0.02447,-3.1623 -0.14474,-6.9457 0.04996,-10.05762c-1.54309,2.77632 -3.30578,6.90469 -4.67717,9.86235l-8.9456,19.20498c-0.28201,-0.69873 -0.64841,-1.41943 -0.98902,-2.09766c-2.80738,-5.58838 -5.41875,-11.34521 -8.45087,-16.81201c4.88652,-11.08564 10.39449,-22.00957 15.44113,-33.02959c1.10769,-2.41904 2.43776,-4.91353 3.35559,-7.39629z" fill="#14e1d0"/><path d="M152.92138,149.22656c4.54297,0.0293 9.08595,0.02783 13.62892,-0.00293c0.25345,7.0957 2.66484,16.88086 5.60803,23.31152c-5.92154,4.36084 -10.63445,10.47656 -14.28817,16.80615c-1.95724,3.46289 -2.88899,8.05518 -5.41026,10.37842c-0.01172,-7.02539 0.47759,-14.34375 0.09669,-21.38379c1.34487,-0.58594 2.51101,-1.40186 3.19078,-2.74219c0.57428,-1.1499 0.65925,-2.48584 0.23294,-3.7002c-0.54059,-1.55859 -1.62615,-2.50928 -3.07944,-3.18457z" fill="#14e1d0"/></g></svg></svg>