<svg id="svg" version="1.1" viewBox="0 0 292.2374429223744 300" width="292.2374429223744" height="300" xmlns="http://www.w3.org/2000/svg"><svg xmlns="http://www.w3.org/2000/svg"><defs><clipPath id="clip-1"><rect x="0" y="0" transform="scale(0.14648,0.14648)" width="1995" height="2048" fill="none"/></clipPath></defs><g clip-path="url(#clip-1)" fill="none" fill-rule="nonzero" stroke="none" stroke-width="1" stroke-linecap="butt" stroke-linejoin="miter" stroke-miterlimit="10" stroke-dasharray="" stroke-dashoffset="0" font-family="none" font-weight="none" font-size="none" text-anchor="none" style="mix-blend-mode: normal"><path d="M0,0h292.23744v300h-292.23744z" fill="#000000"/><path d="M143.02086,12.05191c75.50244,-1.93686 138.2932,57.67274 140.281,133.17401c1.98634,75.50112 -57.5803,138.3312 -133.08156,140.3688c-75.57099,2.04053 -138.47372,-57.59619 -140.46288,-133.16895c-1.98915,-75.57246 57.68937,-138.43518 133.26344,-140.37387z" fill="#fefefe"/><path d="M146.69001,17.26377c72.64188,0.08818 131.4629,59.04185 131.38527,131.68447c-0.07617,72.6416 -59.02171,131.47119 -131.66373,131.40527c-72.65843,-0.06592 -131.50333,-59.02588 -131.42643,-131.68359c0.0769,-72.65889 59.04661,-131.49434 131.7049,-131.40615z" fill="#000000"/><path d="M84.10799,83.04258c2.67701,0.01846 5.43034,0.00513 8.09959,0.10488c2.85221,2.05415 6.44944,5.26611 9.30589,7.5665l22.99652,18.69712l14.19966,11.49419c2.29586,1.85229 5.76228,4.47729 7.79432,6.46157c1.02393,-0.9772 2.8506,-2.39062 3.99318,-3.32344l7.58353,-6.14414l20.86971,-16.94165l14.3731,-11.77163c1.39014,-1.15371 5.85354,-5.05078 7.23196,-5.95254l8.45072,-0.05039c-0.06592,2.84971 0.02783,5.70132 0,8.54971c-0.13623,14.3417 0.19336,28.76206 -0.09814,43.09717c1.667,1.48096 3.48195,3.43052 5.06838,5.05283c2.66017,2.74541 5.35549,5.45698 8.08304,8.13384c-0.03223,2.66748 0.01318,5.4126 0.0249,8.08447c-4.51613,4.16602 -8.74222,8.51514 -13.18071,12.71338l0.0835,45.71924c-2.89161,-0.04834 -5.98684,0.04688 -8.90921,0.04834l-21.47469,0.01465c0.04834,-4.86768 0.04248,-9.73682 -0.02197,-14.60449l16.05621,0.09521c-0.26953,-3.43066 -0.08643,-9.29883 -0.08496,-12.96533l-0.0542,-24.1084c1.92628,-2.0874 4.09279,-4.22021 6.09231,-6.25342c1.56592,-1.59229 3.39845,-3.55225 5.03615,-5.00684c-3.65773,-3.47314 -7.45169,-7.44727 -11.10502,-11.02397l0.00732,-9.69917l0.00293,-15.24624c-0.00293,-2.9127 -0.07324,-5.98594 0.03516,-8.88179c-4.47951,3.45264 -8.80081,7.1373 -13.20708,10.67578l-34.9056,28.22886c-3.9425,-3.5439 -9.20438,-7.59785 -13.39781,-10.99805l-27.83302,-22.57368c-2.21837,-1.82124 -4.51012,-3.54902 -6.6989,-5.40249c0.27905,11.11377 -0.24536,22.7499 0.10972,33.84009c-3.62785,3.78237 -7.48553,7.28965 -10.98154,11.25791c3.62609,3.50684 7.3323,7.41211 10.90448,11.02881c0.17315,12.20654 0.07061,24.94629 0.04043,37.17334c3.95846,-0.10547 8.19554,-0.0293 12.1959,-0.07031l-0.0104,14.62061l-15.41739,-0.00146c-3.73068,-0.01465 -7.51643,-0.09814 -11.23745,0.02197c0.09038,-15.31641 0.09214,-30.63281 0.00513,-45.94922c-4.39396,-3.9126 -8.62078,-8.74658 -13.11802,-12.6709c0.00938,-2.7583 -0.0041,-5.51514 -0.04043,-8.27197c1.31338,-1.13086 2.95621,-2.80415 4.21789,-4.03564c3.04337,-2.97993 6.05012,-5.99722 9.01937,-9.05098c-0.14458,-17.20415 0.10811,-34.48608 -0.10444,-51.68232z" fill="#22e8d9"/><path d="M177.10614,130.96318c0.29883,0.37134 0.18164,5.48496 0.18018,6.25605l-0.01025,10.61719l0.00879,34.26123c-4.60549,3.4248 -9.55521,7.52637 -14.12115,11.10937c-0.25635,-0.38232 -0.10254,-15.13477 -0.10107,-16.85742l-0.0498,-34.00239c2.89015,-2.61899 6.24758,-5.02148 9.24027,-7.55757c1.51758,-1.28599 3.23146,-2.68228 4.85305,-3.82646z" fill="#22e8d9"/><path d="M155.7296,148.37109l0.10254,0.08203c0.36035,0.77637 0.19775,40.5293 0.1875,44.9458c-4.46926,-3.87012 -9.54481,-7.84424 -14.17037,-11.61035c-1.51671,-1.27148 -3.06432,-2.50488 -4.64138,-3.7002c-0.12554,-9.85986 -0.01011,-19.91748 -0.00864,-29.79053c2.86993,2.32031 6.62625,5.28076 9.28451,7.7373c3.0378,-2.60889 6.11985,-5.16357 9.24584,-7.66406z" fill="#22e8d9"/><path d="M115.86094,130.90283c0.91568,0.52456 4.03127,3.17637 5.01022,3.97412c3.09684,2.52832 6.20847,5.03848 9.33475,7.53032l-0.00688,29.78364c-0.78911,-0.41602 -3.15397,-2.47705 -4.05089,-3.17432c-3.44327,-2.6748 -6.86282,-5.61768 -10.38124,-8.19141c0.14678,-9.92432 -0.13696,-20.04595 0.09404,-29.92236z" fill="#22e8d9"/></g></svg></svg>